<svg xmlns="http://www.w3.org/2000/svg" xmlns:xlink="http://www.w3.org/1999/xlink" width="500" zoomAndPan="magnify" viewBox="0 0 375 374.999991" height="500" preserveAspectRatio="xMidYMid meet" version="1.0"><defs><g/><clipPath id="ec27a7e8f2"><path d="M 112.75 132.617188 L 241.117188 132.617188 L 241.117188 261 L 112.75 261 Z M 112.75 132.617188 " clip-rule="nonzero"/></clipPath><clipPath id="7e773a9b69"><path d="M 91.15625 151 L 232 151 L 232 246 L 91.15625 246 Z M 91.15625 151 " clip-rule="nonzero"/></clipPath></defs><g clip-path="url(#ec27a7e8f2)"><path fill="#1f5851" d="M 241.117188 196.890625 C 241.117188 232.296875 212.414062 261 177.007812 261 C 141.601562 261 112.898438 232.296875 112.898438 196.890625 C 112.898438 161.480469 141.601562 132.777344 177.007812 132.777344 C 212.414062 132.777344 241.117188 161.480469 241.117188 196.890625 " fill-opacity="1" fill-rule="nonzero"/></g><path fill="#ffffff" d="M 177.007812 135.96875 C 210.652344 135.96875 237.925781 163.242188 237.925781 196.890625 C 237.925781 230.535156 210.652344 257.808594 177.007812 257.808594 C 143.363281 257.808594 116.089844 230.535156 116.089844 196.890625 C 116.089844 163.242188 143.363281 135.96875 177.007812 135.96875 " fill-opacity="1" fill-rule="nonzero"/><path fill="#f07017" d="M 117.683594 196.890625 C 117.683594 164.125 144.246094 137.5625 177.007812 137.5625 C 209.773438 137.5625 236.332031 164.125 236.332031 196.890625 C 236.332031 229.652344 209.773438 256.214844 177.007812 256.214844 C 144.246094 256.214844 117.683594 229.652344 117.683594 196.890625 " fill-opacity="1" fill-rule="nonzero"/><path fill="#ffffff" d="M 176.648438 205.671875 L 176.523438 213.816406 L 179.492188 216.859375 C 183.21875 216.078125 188.632812 220.296875 190.082031 224.558594 L 192.28125 225.445312 C 192.746094 224.296875 193.367188 223.28125 194.152344 222.414062 C 192.222656 219.390625 191.015625 217.011719 190.742188 215.382812 L 190.730469 215.316406 L 190.726562 215.25 C 190.632812 213.625 190.597656 211.535156 192.445312 209.949219 C 192.652344 207.984375 194.15625 206.175781 195.710938 204.644531 C 196.332031 201.714844 198.199219 199.59375 201.15625 198.390625 L 201.269531 198.082031 C 198.738281 198.511719 196.308594 198.050781 195.851562 195.445312 L 195.816406 195.257812 L 196.339844 191.566406 L 194.570312 191.214844 C 189.980469 199.019531 183.449219 204.484375 176.648438 205.671875 Z M 203.910156 194.625 L 205.832031 193.492188 C 206.855469 190.164062 209.300781 188.617188 212.851562 189.113281 C 216.273438 189.59375 220.746094 191.953125 226.191406 195.921875 L 226.261719 195.972656 L 226.320312 196.03125 C 230.195312 199.808594 232.734375 203.839844 232.484375 210.039062 L 232.480469 210.171875 L 232.445312 210.304688 C 231.035156 215.519531 229.445312 219.273438 227.667969 221.171875 C 224.40625 223.949219 221.464844 226.273438 219.105469 227.148438 C 216.292969 231.445312 214.722656 234.359375 214.167969 236.558594 C 214.824219 237.757812 215.195312 239.363281 215.371094 241.265625 C 215.394531 241.53125 215.417969 241.804688 215.433594 242.085938 C 205.082031 250.898438 191.667969 256.214844 177.007812 256.214844 C 164.574219 256.214844 153.035156 252.386719 143.503906 245.851562 L 144.023438 244.132812 L 144.21875 244.070312 C 144.195312 243.570312 144.292969 243.246094 144.292969 243.246094 C 142.480469 242.308594 141.582031 241.8125 140.742188 241.335938 C 139.863281 240.835938 139.050781 240.363281 137.296875 239.417969 C 136.847656 239.546875 136.375 239.621094 135.882812 239.644531 C 124.664062 228.851562 117.683594 213.6875 117.683594 196.890625 C 117.683594 164.125 144.246094 137.5625 177.007812 137.5625 C 177.707031 137.5625 178.398438 137.578125 179.089844 137.601562 C 182.460938 139.175781 185.671875 140.921875 188.730469 142.847656 C 199.421875 147.199219 203.773438 163.316406 199.453125 179.441406 C 199.167969 180.503906 198.851562 181.542969 198.507812 182.5625 L 199.089844 182.773438 L 200.09375 181.351562 L 201.542969 181.351562 L 204.679688 178.894531 L 214.753906 179.210938 L 215.085938 179.804688 C 216.207031 181.816406 215.714844 183.683594 213.742188 184.882812 L 213.382812 185.101562 L 206.589844 184.1875 L 206.457031 184.398438 L 207.179688 185.117188 L 207.109375 185.695312 C 206.765625 188.53125 205.683594 191.507812 203.910156 194.625 Z M 132.839844 207.28125 C 136.53125 205.332031 144.820312 207.222656 148.570312 209.8125 C 149.058594 208 149.648438 206.074219 150.300781 204.109375 C 142.707031 202.726562 134.390625 200.597656 125.34375 197.722656 C 127.507812 200.597656 129.933594 203.800781 132.839844 207.28125 " fill-opacity="1" fill-rule="nonzero"/><path fill="#472216" d="M 100.390625 154.621094 C 105.105469 137.03125 118.191406 125.253906 129.625 128.316406 C 141.058594 131.378906 146.507812 148.125 141.792969 165.71875 C 137.082031 183.3125 123.992188 195.089844 112.558594 192.023438 C 101.125 188.960938 95.675781 172.214844 100.390625 154.621094 " fill-opacity="1" fill-rule="nonzero"/><path fill="#472216" d="M 158.757812 168.535156 C 163.261719 151.734375 175.757812 140.488281 186.675781 143.414062 C 197.59375 146.34375 202.796875 162.332031 198.296875 179.132812 C 193.796875 195.929688 181.296875 207.179688 170.378906 204.25 C 159.460938 201.324219 154.257812 185.335938 158.757812 168.535156 " fill-opacity="1" fill-rule="nonzero"/><path fill="#472216" d="M 193.308594 147.425781 C 177.023438 135.339844 155.578125 128.917969 128.976562 128.15625 L 112.019531 191.867188 C 138.847656 201.777344 160.15625 206.011719 175.941406 204.570312 C 184.417969 193.804688 190.207031 174.753906 193.308594 147.425781 " fill-opacity="1" fill-rule="evenodd"/><path fill="#d1bb80" d="M 128.335938 133.128906 C 135.425781 135.03125 141.539062 147.414062 136.980469 164.429688 C 132.417969 181.445312 120.933594 189.109375 113.847656 187.210938 C 106.757812 185.308594 100.644531 172.929688 105.203125 155.914062 C 109.765625 138.894531 121.25 131.230469 128.335938 133.128906 " fill-opacity="1" fill-rule="nonzero"/><path fill="#c3b259" d="M 137.234375 130.246094 C 137.890625 130.324219 138.546875 130.453125 139.199219 130.625 C 150.632812 133.691406 156.078125 150.4375 151.363281 168.027344 C 146.652344 185.621094 133.5625 197.398438 122.128906 194.335938 C 120.945312 194.019531 119.824219 193.550781 118.769531 192.957031 C 129.703125 194.28125 141.597656 182.863281 146.042969 166.269531 C 150.269531 150.5 146.328125 135.410156 137.234375 130.246094 " fill-opacity="1" fill-rule="nonzero"/><path fill="#c3b259" d="M 195.761719 178.75 C 192.332031 191.550781 184.121094 201.03125 175.621094 203.144531 L 175.769531 199.359375 C 182.308594 195.429688 188.089844 187.332031 190.828125 177.117188 C 194.746094 162.496094 191.09375 148.507812 182.660156 143.71875 C 183.269531 143.792969 183.878906 143.90625 184.480469 144.070312 C 195.082031 146.910156 200.132812 162.4375 195.761719 178.75 " fill-opacity="1" fill-rule="nonzero"/><path fill="#b4a44e" d="M 188.542969 154.414062 C 182.167969 148.84375 169.613281 143.59375 150.882812 138.65625 L 152.011719 140.875 C 166.171875 144.039062 178.609375 148.929688 189.320312 155.542969 L 188.542969 154.414062 " fill-opacity="1" fill-rule="evenodd"/><path fill="#b4a44e" d="M 154.761719 158.390625 L 191.070312 170.191406 L 190.691406 170.574219 C 177.488281 168.242188 165.425781 164.671875 154.507812 159.863281 L 154.761719 158.390625 " fill-opacity="1" fill-rule="evenodd"/><path fill="#b4a44e" d="M 187.175781 181.6875 C 176.15625 180.902344 164.074219 178.582031 150.9375 174.726562 L 150.558594 176.066406 C 163.589844 180.058594 175.710938 182.269531 186.921875 182.699219 L 187.175781 181.6875 " fill-opacity="1" fill-rule="evenodd"/><path fill="#b4a44e" d="M 182.132812 190.675781 C 173.242188 190.753906 161.054688 189.203125 145.570312 186.019531 L 144.683594 186.90625 C 160.605469 190.460938 172.917969 192.164062 181.628906 192.019531 L 182.132812 190.675781 " fill-opacity="1" fill-rule="evenodd"/><path fill="#b4a44e" d="M 136.457031 194.121094 C 153.261719 197.160156 165.761719 198.621094 173.964844 198.5 L 173.894531 199.726562 C 165.339844 200.214844 151.265625 198.3125 133.644531 194.957031 L 136.457031 194.121094 " fill-opacity="1" fill-rule="evenodd"/><g clip-path="url(#7e773a9b69)"><path fill="#472216" d="M 212.894531 236.769531 C 213.558594 237.746094 213.988281 239.28125 214.179688 241.375 C 200.753906 242.089844 173.710938 243.535156 144.988281 245.074219 L 145.726562 242.640625 C 140.921875 240.179688 141.589844 240.355469 137.402344 238.121094 C 133.265625 239.808594 125.480469 235.023438 125.386719 230.425781 L 120.5625 227.3125 C 117.730469 226.417969 116.964844 224.5625 116.605469 222.988281 C 113.082031 216.730469 108.890625 207.433594 104.859375 193.21875 L 96.957031 183.71875 C 95.355469 182.785156 93.882812 179.238281 94.136719 177.410156 C 92.871094 176.332031 92.746094 175.910156 92.757812 173.273438 C 91.574219 172.328125 91.199219 170.097656 91.523438 167.238281 L 92.445312 158.128906 L 96.113281 156.441406 L 95.359375 154.398438 C 94.808594 151.476562 97.601562 149.691406 99.363281 152.484375 L 100.65625 154.566406 L 103.933594 153.433594 C 107.039062 153.039062 106.988281 157.222656 105.003906 158.640625 C 107.925781 159.273438 107.9375 160.089844 106.621094 163.375 C 110.167969 163.683594 108.90625 166.796875 107.429688 168.160156 C 110.769531 168.375 110.269531 173.574219 106.039062 175.003906 C 106.210938 176.121094 104.1875 179.265625 105.578125 181.546875 C 107.390625 184.515625 111.472656 187.925781 118.964844 191.441406 C 122.691406 195.914062 126.683594 201.867188 132.648438 208.914062 C 135.265625 205.851562 147.8125 209.027344 149.21875 212.125 C 151.664062 201.808594 158.171875 186.582031 161.621094 181.253906 L 161.679688 181.515625 C 161.695312 181.308594 161.671875 181.222656 161.621094 181.253906 C 160.574219 176.453125 160.851562 171.359375 163.90625 165.699219 L 166.75 158.167969 C 164.742188 150.929688 166.558594 150.734375 169.429688 151.195312 L 171.339844 155.074219 C 171.039062 151.261719 174.261719 150.386719 175.859375 151.984375 L 176.566406 154.433594 C 179.527344 150.40625 181.207031 154.484375 181.5 156.277344 C 182.800781 155.371094 183.835938 155.519531 184.492188 157.261719 L 186.335938 166.4375 L 182.109375 177.148438 L 175.71875 188.175781 L 175.320312 214.296875 L 179.148438 218.222656 C 181.972656 216.910156 187.976562 220.949219 189.097656 225.453125 L 193.007812 227.027344 C 193.535156 225.167969 194.429688 223.683594 195.6875 222.582031 C 193.425781 219.140625 192.171875 216.671875 191.921875 215.183594 C 191.824219 213.445312 191.851562 211.773438 193.621094 210.550781 C 193.539062 208.824219 194.941406 207.039062 196.8125 205.238281 C 197.296875 202.398438 199.050781 200.390625 202.097656 199.3125 L 203.121094 196.480469 L 206.851562 194.277344 C 208.421875 188.101562 214.632812 188.972656 225.488281 196.890625 C 229.214844 200.523438 231.519531 204.242188 231.289062 209.992188 C 229.878906 215.210938 228.394531 218.648438 226.84375 220.308594 C 223.324219 223.304688 220.46875 225.5 218.332031 226.148438 C 215.195312 230.910156 213.402344 234.199219 212.894531 236.769531 " fill-opacity="1" fill-rule="evenodd"/></g><path fill="#472216" d="M 196.140625 182.96875 L 199.542969 184.210938 L 200.714844 182.546875 L 201.957031 182.546875 L 205.074219 180.105469 L 214.039062 180.386719 C 214.851562 181.839844 214.542969 182.996094 213.121094 183.859375 L 205.992188 182.898438 L 204.933594 184.566406 L 205.921875 185.550781 C 205.503906 189.015625 203.882812 192.796875 201.066406 196.902344 C 198.640625 197.316406 197.296875 196.757812 197.027344 195.238281 L 197.664062 190.734375 L 196.5625 190.382812 L 192.949219 189.675781 L 196.140625 182.96875 " fill-opacity="1" fill-rule="evenodd"/><path fill="#472216" d="M 144.542969 246.550781 L 144.988281 245.082031 C 164.097656 239.085938 187.164062 237.851562 214.179688 241.375 C 214.230469 241.898438 214.261719 242.453125 214.28125 243.042969 C 204.09375 251.28125 191.128906 256.214844 177.007812 256.214844 C 165.023438 256.214844 153.871094 252.660156 144.542969 246.550781 " fill-opacity="1" fill-rule="nonzero"/><path fill="#ffffff" d="M 208.617188 194.871094 L 204.496094 197.320312 L 203.585938 199.824219 C 200.746094 201.433594 198.894531 203.449219 198.03125 205.875 C 196.457031 207.648438 195.511719 209.351562 195.195312 210.988281 C 194.019531 212.453125 193.460938 213.65625 193.515625 214.59375 C 193.847656 215.609375 199.472656 215.941406 202.320312 218.136719 C 206.828125 221.679688 211 222.742188 214.835938 221.328125 C 212.40625 225.554688 207.519531 226.832031 198.25 223.667969 C 197.269531 226.003906 196.636719 227.792969 196.351562 229.03125 C 199.796875 229.78125 204.703125 232.191406 211.0625 236.265625 C 211.910156 232.636719 214.339844 227.820312 218.355469 221.824219 L 217.609375 219.417969 C 222.480469 225.097656 231.886719 209.0625 219.949219 214.757812 L 218.4375 212.503906 C 219.292969 212.195312 220.015625 209.808594 220.113281 207.824219 C 224.476562 205.628906 225.835938 199.742188 211.726562 196.386719 C 210.734375 195.140625 209.699219 194.636719 208.617188 194.871094 " fill-opacity="1" fill-rule="evenodd"/><path fill="#ffffff" d="M 177.757812 221.511719 L 172.40625 215.691406 L 173.839844 186.019531 L 182.132812 174.21875 L 185.324219 166.558594 L 184 158.464844 C 183.410156 156.769531 181.945312 156.71875 181.453125 158.464844 L 182.191406 164.84375 L 180.101562 169.582031 C 179.285156 170.011719 178.867188 169.816406 178.851562 168.988281 L 180.867188 163.527344 L 180.152344 155.175781 C 179.164062 153.695312 177.160156 154.335938 177.191406 155.550781 L 177.769531 162.046875 L 175.761719 168.035156 C 175.074219 168.71875 174.625 168.523438 174.417969 167.453125 L 176.566406 161.457031 L 175.316406 153.332031 C 174.210938 151.765625 172.507812 152.292969 172.375 155.0625 L 173.050781 161.296875 L 171.023438 166.191406 C 170.003906 167.074219 169.558594 166.957031 169.695312 165.847656 L 171.769531 159.386719 L 169.429688 153.035156 C 168.121094 151.707031 166.898438 152.789062 167.121094 154.511719 L 168.265625 159.863281 L 165.230469 166.558594 C 162.226562 170.785156 161.480469 175.996094 162.992188 182.195312 C 157.734375 197.523438 152.585938 207.3125 151.507812 219.042969 C 150.128906 223.707031 150.820312 226.710938 153.585938 228.054688 C 155.433594 232.234375 158.785156 235.984375 163.636719 239.304688 C 171.289062 239.011719 175.996094 233.078125 177.757812 221.511719 " fill-opacity="1" fill-rule="evenodd"/><path fill="#ffffff" d="M 133.460938 229.5 C 128.625 228.527344 123.632812 226.027344 120.152344 222.9375 C 116.203125 217.351562 111.132812 206.527344 106.382812 191.621094 C 101.273438 185.644531 98.644531 183.726562 97.523438 181.625 C 96.617188 180.535156 95.433594 179.429688 95.308594 176.375 C 94.847656 175.148438 93.621094 174.574219 94.058594 172.691406 C 93.683594 171.4375 91.992188 169.492188 92.722656 166.980469 L 93.621094 159.148438 L 102.238281 155.148438 C 104.144531 154.9375 104.453125 157.296875 102.765625 158.515625 L 96.386719 161.027344 L 95.074219 167.550781 C 94.976562 168.453125 95.210938 168.691406 95.789062 168.265625 L 97.167969 162.167969 L 104.050781 160.433594 C 106.238281 160.207031 106.390625 162.820312 104.789062 163.621094 L 99.148438 165.199219 C 98.46875 168.296875 97.722656 170.011719 97.605469 170.78125 C 97.304688 171.949219 98.09375 172.277344 98.488281 171.398438 L 100.003906 165.957031 L 105.710938 164.460938 C 107.09375 164.984375 107.125 166.980469 105.667969 167.789062 L 101.457031 169.148438 C 100.15625 172.363281 100.085938 173.304688 99.683594 174.710938 C 99.699219 175.523438 99.949219 175.355469 100.457031 174.929688 L 102.339844 170.476562 L 106.277344 169.160156 C 107.707031 168.972656 108.109375 170.523438 106.902344 172.160156 C 105.976562 172.382812 104.839844 173.085938 104.121094 173.40625 C 103.996094 175.757812 103.921875 176.453125 102.839844 178.859375 C 104.558594 180.601562 106.410156 183.597656 107.6875 188.03125 C 110.789062 190.703125 114.796875 193.121094 119.722656 195.28125 L 130.089844 210.722656 L 138.25 213.050781 C 140.5 220.191406 138.128906 226.691406 133.460938 229.5 " fill-opacity="1" fill-rule="evenodd"/><path fill="#e7ce24" d="M 212.425781 182.707031 L 205.324219 182.195312 L 204.039062 183.222656 L 205.273438 181.214844 L 212.835938 181.164062 C 213.542969 181.542969 213.40625 182.058594 212.425781 182.707031 " fill-opacity="1" fill-rule="evenodd"/><path fill="#e7ce24" d="M 201.570312 183.839844 C 202.675781 183.785156 203.875 184.492188 205.171875 185.949219 C 204.386719 189.085938 202.808594 192.136719 200.4375 195.109375 C 201.820312 191.75 202.4375 188.953125 202.289062 186.722656 C 202.046875 185.902344 201.363281 185.371094 200.230469 185.125 L 201.570312 183.839844 " fill-opacity="1" fill-rule="evenodd"/><path fill="#e7ce24" d="M 199.203125 185.589844 C 199.519531 187.140625 198.953125 188.460938 197.503906 189.550781 L 195.601562 188.882812 C 196.886719 187.992188 197.4375 186.621094 197.246094 184.765625 L 199.203125 185.589844 " fill-opacity="1" fill-rule="evenodd"/><path fill="#b4a44e" d="M 140.949219 178.476562 C 145.277344 174.867188 148.890625 170.816406 151.789062 166.328125 C 151.660156 166.894531 151.515625 167.460938 151.363281 168.027344 C 146.652344 185.621094 133.5625 197.398438 122.128906 194.335938 C 120.945312 194.019531 119.824219 193.550781 118.769531 192.957031 C 126.738281 193.921875 135.214844 188.117188 140.949219 178.476562 " fill-opacity="1" fill-rule="nonzero"/><path fill="#472216" d="M 203.730469 199.742188 L 204.871094 198.535156 C 206.050781 198.4375 207.308594 199.242188 207.75 200.554688 L 206.152344 201.335938 L 203.578125 201.488281 L 203.730469 199.742188 " fill-opacity="1" fill-rule="evenodd"/><path fill="#c8baaf" d="M 173.613281 233.667969 L 161.164062 218.480469 L 168.136719 184.390625 L 166.351562 172.421875 L 169.933594 159.457031 L 167.707031 152.625 C 168.148438 152.3125 168.777344 152.375 169.429688 153.035156 L 171.769531 159.386719 L 169.695312 165.847656 C 169.558594 166.957031 170.003906 167.074219 171.023438 166.191406 L 173.050781 161.296875 L 172.375 155.0625 C 172.507812 152.292969 174.210938 151.765625 175.316406 153.332031 L 176.566406 161.457031 L 174.417969 167.453125 C 174.625 168.523438 175.074219 168.71875 175.761719 168.035156 L 177.769531 162.046875 L 177.191406 155.550781 C 177.160156 154.335938 179.164062 153.695312 180.152344 155.175781 L 180.867188 163.527344 L 178.851562 168.988281 C 178.867188 169.816406 179.285156 170.011719 180.101562 169.582031 L 182.191406 164.84375 L 181.453125 158.464844 C 181.945312 156.71875 183.410156 156.769531 184 158.464844 L 185.324219 166.558594 L 182.132812 174.21875 L 173.839844 186.019531 L 172.40625 215.691406 L 177.757812 221.511719 C 176.96875 226.699219 175.585938 230.75 173.613281 233.667969 " fill-opacity="1" fill-rule="nonzero"/><path fill="#c8baaf" d="M 138.476562 222.816406 L 127.628906 216.921875 C 127.03125 213.582031 123.65625 207.445312 117.511719 198.511719 C 114.007812 197.070312 110.261719 193.875 106.269531 188.917969 C 105.644531 186.777344 103.515625 182.527344 101.097656 178.960938 C 101.945312 177.792969 102.707031 175.636719 103.378906 172.492188 C 104.6875 172.332031 106.097656 171.539062 107.601562 170.117188 C 107.671875 170.671875 107.457031 171.40625 106.902344 172.160156 C 105.976562 172.382812 104.839844 173.085938 104.121094 173.40625 C 103.996094 175.757812 103.921875 176.453125 102.839844 178.859375 C 104.558594 180.601562 106.410156 183.597656 107.6875 188.03125 C 110.789062 190.703125 114.796875 193.121094 119.722656 195.28125 L 130.089844 210.722656 L 138.25 213.050781 C 139.363281 216.585938 139.34375 219.964844 138.476562 222.816406 " fill-opacity="1" fill-rule="nonzero"/><path fill="#c8baaf" d="M 202.429688 231.308594 L 204.269531 226.53125 L 203.433594 225.070312 C 209.425781 226.179688 212.90625 224.683594 214.835938 221.328125 C 211 222.742188 206.828125 221.679688 202.320312 218.136719 C 201.585938 217.574219 200.671875 217.128906 199.707031 216.769531 L 198.890625 213.683594 C 201.527344 214.605469 202.660156 213.097656 202.289062 209.15625 C 203.203125 209.117188 203.863281 208.527344 204.269531 207.390625 C 208.398438 208.953125 209.535156 207.816406 207.679688 203.980469 L 210.324219 202.601562 L 213.714844 203.1875 C 216.109375 203.550781 218.058594 202.238281 219.566406 199.257812 C 224.976562 202.4375 223.390625 206.175781 220.113281 207.824219 C 220.015625 209.808594 219.292969 212.195312 218.4375 212.503906 L 219.949219 214.757812 C 231.886719 209.0625 222.480469 225.097656 217.609375 219.417969 L 218.355469 221.824219 C 214.339844 227.820312 211.910156 232.636719 211.0625 236.265625 C 207.800781 234.175781 204.921875 232.523438 202.429688 231.308594 " fill-opacity="1" fill-rule="nonzero"/><path fill="#472216" d="M 210.769531 201.78125 C 212.027344 201.816406 213.691406 202.019531 214.933594 203.183594 C 216.171875 204.222656 216.769531 205.234375 216.730469 206.222656 C 214.828125 206.878906 212.976562 206.226562 212.144531 205.84375 L 210.492188 203.601562 L 207.84375 203.84375 L 210.769531 201.78125 " fill-opacity="1" fill-rule="evenodd"/><path fill="#472216" d="M 203 203.488281 C 203.355469 203.945312 204.097656 204.171875 205.226562 204.171875 L 206.566406 207.667969 C 206.832031 207.910156 207.363281 207.980469 208.160156 207.867188 C 207.664062 208.441406 206.835938 208.59375 205.683594 208.324219 L 203 207.3125 L 201.984375 206.070312 L 203 203.488281 " fill-opacity="1" fill-rule="evenodd"/><path fill="#472216" d="M 205.882812 213.109375 L 204.1875 209.769531 C 202.246094 208.289062 200.550781 207.742188 199.097656 208.121094 L 198.691406 210.246094 C 198 210.277344 197.636719 210.445312 197.605469 210.753906 C 199.578125 211.507812 201.601562 212.488281 203.679688 213.691406 C 204.527344 213.957031 205.261719 213.761719 205.882812 213.109375 " fill-opacity="1" fill-rule="evenodd"/><path fill="#472216" d="M 202.644531 214.328125 C 199.507812 214.472656 197.695312 213.777344 197.199219 212.25 C 198.230469 212.496094 200.046875 213.1875 202.644531 214.328125 " fill-opacity="1" fill-rule="evenodd"/><path fill="#7d5e4a" d="M 159.167969 239.132812 C 167.558594 252.242188 174.90625 250.667969 182.402344 241.632812 C 173.992188 246.101562 165.273438 246.417969 159.167969 239.132812 " fill-opacity="1" fill-rule="evenodd"/><path fill="#7d5e4a" d="M 128.859375 232.410156 C 135.703125 233.835938 141.738281 233.457031 146.972656 231.265625 C 143.167969 234.273438 138.664062 235.464844 133.457031 234.835938 C 131.847656 234.761719 130.316406 233.953125 128.859375 232.410156 " fill-opacity="1" fill-rule="evenodd"/><path fill="#b4a44e" d="M 116.867188 136.558594 L 137.109375 144.046875 L 137.324219 144.058594 C 137.953125 146.179688 138.363281 148.558594 138.5 151.15625 C 136.292969 147.792969 128.738281 143.210938 115.84375 137.40625 C 116.183594 137.109375 116.527344 136.828125 116.867188 136.558594 Z M 107.941406 182.757812 L 118.875 186.839844 C 115.460938 180.824219 112.007812 176.582031 108.515625 174.121094 L 128.496094 180.808594 C 123.617188 186.167969 117.984375 188.316406 113.847656 187.210938 C 111.699219 186.632812 109.640625 185.09375 107.941406 182.757812 Z M 130.8125 177.933594 C 130.097656 175.292969 122.582031 170.683594 108.261719 164.09375 L 133.703125 173.125 C 132.8125 174.886719 131.839844 176.492188 130.8125 177.933594 Z M 135.660156 168.59375 C 134.226562 165.503906 124.511719 159.890625 106.515625 151.761719 L 106.53125 151.714844 L 137.242188 163.402344 C 137.160156 163.742188 137.070312 164.082031 136.980469 164.429688 C 136.589844 165.886719 136.148438 167.273438 135.660156 168.59375 Z M 138.082031 159.167969 C 136.253906 156.113281 127.027344 151.027344 110.40625 143.910156 L 138.539062 154.050781 C 138.496094 155.6875 138.347656 157.394531 138.082031 159.167969 " fill-opacity="1" fill-rule="nonzero"/><path fill="#472216" d="M 132.210938 184.109375 L 106.140625 173.25 L 107.035156 172.523438 L 131.730469 182.195312 Z M 136.039062 175.492188 L 106.085938 163.019531 L 106.109375 162.046875 L 135.558594 173.582031 Z M 137.953125 163.050781 L 138.429688 164.964844 L 104.726562 150.929688 L 105.363281 150.289062 Z M 142.53125 146.78125 L 114.394531 136.230469 L 115.183594 135.585938 L 141.894531 145.183594 Z M 139.707031 153.640625 L 140.34375 155.234375 L 108.441406 143.273438 L 109.078125 142.632812 Z M 127.105469 190.808594 L 105.769531 181.921875 L 104.785156 180.339844 L 126.625 188.894531 L 127.105469 190.808594 " fill-opacity="1" fill-rule="nonzero"/><g fill="#462216" fill-opacity="1"><g transform="translate(155.022934, 134.585321)"><g><path d="M 14.488281 -16.96875 C 12.15625 -19.855469 8.871094 -21.117188 4.46875 -20.839844 C 2.902344 -20.773438 1.277344 -20.929688 -0.265625 -21.082031 L -1.246094 -21.203125 C -1.859375 -21.25 -2.277344 -21.515625 -2.472656 -21.929688 C -2.683594 -22.375 -2.585938 -22.882812 -2.234375 -23.382812 C -1.636719 -24.253906 -0.886719 -25.238281 0.046875 -25.929688 C 2.035156 -27.5 4.417969 -27.789062 6.050781 -27.886719 C 6.710938 -27.90625 7.160156 -28.117188 7.316406 -28.402344 C 7.546875 -28.804688 7.371094 -29.351562 7.144531 -29.75 C 6.832031 -30.316406 6.371094 -30.851562 5.832031 -31.1875 C 4.476562 -32.101562 2.886719 -32.355469 1.128906 -31.988281 C -2.828125 -31.125 -5.730469 -28.828125 -7.460938 -25.195312 C -8.332031 -23.3125 -8.445312 -21.328125 -7.71875 -19.613281 C -7.027344 -17.882812 -5.527344 -16.492188 -3.558594 -15.789062 C -0.710938 -14.738281 2 -14.425781 4.742188 -14.839844 C 6.070312 -15.046875 7.53125 -15.066406 8.796875 -13.902344 L 9.148438 -13.605469 L 8.160156 -12.761719 C 6.984375 -11.699219 5.550781 -11.441406 4.152344 -11.203125 C 3.796875 -11.160156 3.453125 -11.082031 3.113281 -11.003906 C 2.722656 -10.945312 2.363281 -10.816406 2.050781 -10.671875 C 0.851562 -10.101562 0.0976562 -9.117188 -0.0117188 -7.929688 C -0.148438 -6.441406 0.859375 -5.023438 2.523438 -4.34375 C 4.089844 -3.695312 6.402344 -3.152344 8.519531 -4.277344 C 10.871094 -5.515625 12.75 -6.785156 14.15625 -8.160156 C 16.691406 -10.621094 16.816406 -14.082031 14.488281 -16.96875 Z M 14.488281 -16.96875 "/></g></g></g><g fill="#462216" fill-opacity="1"><g transform="translate(171.129848, 125.907988)"><g><path d="M 18.851562 -29.8125 C 18.542969 -29.859375 18.234375 -29.90625 17.890625 -29.914062 C 16.589844 -29.945312 15.296875 -29.902344 14.011719 -29.78125 C 11.40625 -29.539062 8.820312 -29.03125 6.316406 -28.496094 C 4.742188 -28.195312 3.132812 -27.855469 1.519531 -27.59375 C 1.480469 -27.589844 1.449219 -27.546875 1.371094 -27.539062 L 1.261719 -27.492188 C -0.285156 -26.890625 -1.066406 -25.867188 -0.867188 -24.550781 C -0.714844 -23.304688 0.238281 -22.515625 1.859375 -22.285156 C 2.246094 -22.246094 2.625 -22.242188 3.046875 -22.242188 C 3.925781 -22.210938 4.800781 -22.214844 5.679688 -22.222656 L 6.941406 -22.1875 L 7.035156 -21.546875 C 7.054688 -21.359375 7.070312 -21.207031 7.085938 -21.015625 C 7.207031 -19.695312 7.292969 -18.367188 7.378906 -17.042969 C 7.605469 -13.785156 7.875 -10.453125 8.179688 -7.164062 C 8.289062 -5.992188 8.636719 -4.726562 9.199219 -3.597656 C 9.761719 -2.46875 10.84375 -1.882812 12.203125 -2.007812 C 13.527344 -2.132812 14.484375 -2.90625 14.824219 -4.195312 C 15.113281 -5.175781 15.207031 -6.214844 15.085938 -7.117188 C 14.777344 -9.605469 14.285156 -12.039062 13.867188 -14.097656 C 13.460938 -16.003906 13.015625 -17.90625 12.566406 -19.886719 C 12.332031 -20.78125 12.128906 -21.714844 11.929688 -22.648438 L 11.8125 -23.09375 L 15.289062 -23.417969 C 15.667969 -23.453125 16.046875 -23.488281 16.425781 -23.484375 C 17.222656 -23.558594 18.089844 -23.640625 18.878906 -23.75 C 20.492188 -24.054688 21.601562 -25.261719 21.609375 -26.789062 C 21.585938 -28.273438 20.523438 -29.46875 18.851562 -29.8125 Z M 18.851562 -29.8125 "/></g></g></g><g fill="#462216" fill-opacity="1"><g transform="translate(192.313863, 123.027166)"><g><path d="M 31.269531 -18.425781 C 31.160156 -19.527344 30.523438 -20.3125 29.492188 -20.699219 C 28.347656 -21.121094 27.335938 -20.910156 26.566406 -20.070312 C 25.949219 -19.460938 25.445312 -18.703125 25.066406 -17.824219 C 24.648438 -16.957031 24.292969 -16.035156 23.945312 -15.148438 C 23.558594 -14.113281 23.160156 -13.042969 22.652344 -12.007812 L 22.414062 -11.484375 C 21.324219 -9.15625 20.171875 -6.765625 18.753906 -4.535156 C 18.078125 -3.46875 17.195312 -2.902344 16.222656 -2.835938 C 15.167969 -2.753906 14.070312 -3.320312 13.097656 -4.445312 C 11.613281 -6.234375 11.101562 -8.371094 11.589844 -10.796875 C 11.832031 -11.875 12.050781 -13 12.292969 -14.074219 C 12.636719 -15.757812 12.992188 -17.472656 13.300781 -19.164062 C 13.5625 -20.433594 13.671875 -21.46875 13.679688 -22.417969 C 13.679688 -23.609375 13.039062 -24.511719 11.996094 -24.746094 C 10.957031 -24.976562 10.101562 -24.636719 9.4375 -23.609375 C 9.164062 -23.214844 8.933594 -22.847656 8.789062 -22.496094 C 8.109375 -20.753906 7.429688 -19.015625 6.707031 -17.253906 L 6.25 -16 L 6.359375 -15.96875 L 6.253906 -15.605469 C 6.15625 -15.277344 6.054688 -14.949219 5.957031 -14.625 C 5.761719 -13.96875 5.554688 -13.277344 5.398438 -12.613281 C 4.175781 -7.867188 5.144531 -3.691406 8.222656 -0.195312 C 10.1875 1.976562 12.75 3.21875 15.476562 3.242188 C 18.203125 3.265625 20.773438 2.089844 22.75 -0.0117188 C 23.691406 -1.039062 24.617188 -2.148438 25.203125 -3.320312 C 27.042969 -7.089844 28.914062 -11.085938 31.042969 -15.957031 C 31.292969 -16.515625 31.386719 -17.359375 31.269531 -18.425781 Z M 31.269531 -18.425781 "/></g></g></g><g fill="#462216" fill-opacity="1"><g transform="translate(214.086461, 128.712532)"><g><path d="M 31.859375 -6.351562 C 31.421875 -9.976562 29.460938 -13.226562 26.410156 -15.550781 L 26.117188 -15.734375 L 26.203125 -15.960938 C 25.832031 -16.164062 25.488281 -16.34375 25.117188 -16.546875 C 24.035156 -17.082031 22.921875 -17.640625 21.820312 -18.089844 C 19.738281 -18.894531 19.085938 -18.691406 17.570312 -16.941406 C 16.179688 -15.28125 14.765625 -13.59375 13.378906 -11.882812 C 11.3125 -9.453125 9.277344 -6.996094 7.1875 -4.535156 C 6.6875 -3.917969 5.878906 -3.398438 5.046875 -3.097656 C 4.058594 -2.722656 3.289062 -2.074219 2.917969 -1.253906 C 2.613281 -0.570312 2.585938 0.1875 2.875 0.910156 C 3.320312 2.050781 4.109375 3.128906 5.011719 3.765625 C 8.992188 6.691406 13.617188 8.335938 18.769531 8.550781 C 22.8125 8.746094 26.164062 7.257812 28.769531 4.042969 C 31.179688 1.0625 32.292969 -2.726562 31.859375 -6.351562 Z M 18.734375 1.050781 C 17.367188 0.871094 16.039062 0.578125 14.601562 0.242188 C 13.9375 0.0976562 13.246094 -0.0742188 12.53125 -0.214844 L 11.917969 -0.363281 L 20.992188 -12.65625 L 21.324219 -12.289062 C 21.566406 -12.042969 21.839844 -11.773438 22.082031 -11.53125 C 23.292969 -10.253906 24.5625 -8.984375 25.179688 -7.214844 C 25.90625 -5.210938 25.519531 -2.984375 24.164062 -1.25 C 22.800781 0.433594 20.785156 1.292969 18.734375 1.050781 Z M 18.734375 1.050781 "/></g></g></g><g fill="#462216" fill-opacity="1"><g transform="translate(231.703196, 142.618617)"><g><path d="M 14.535156 10.957031 C 14.230469 10.523438 13.859375 10.125 13.457031 9.746094 C 13.113281 9.464844 12.78125 9.132812 12.503906 8.8125 C 11.378906 7.449219 10.417969 6.207031 9.617188 5.007812 C 9.40625 4.734375 9.460938 4.304688 9.515625 4.09375 C 9.566406 3.886719 9.640625 3.492188 9.933594 3.316406 C 10.808594 2.707031 11.753906 2.140625 12.664062 1.597656 C 12.992188 1.402344 13.316406 1.207031 13.613281 1.035156 L 13.96875 0.820312 L 14.183594 1.179688 C 14.585938 1.777344 14.988281 2.378906 15.390625 2.980469 C 16.347656 4.441406 17.269531 5.835938 18.257812 7.191406 C 18.730469 7.839844 19.425781 8.484375 20.230469 9.023438 C 20.894531 9.464844 21.921875 9.78125 22.957031 9.074219 C 23.8125 8.433594 24.132812 7.488281 23.804688 6.492188 C 23.429688 5.34375 22.796875 4.132812 21.980469 2.984375 C 21.316406 2.097656 20.539062 1.234375 19.738281 0.339844 C 19.371094 -0.0585938 19 -0.457031 18.644531 -0.90625 L 18.324219 -1.289062 L 19.921875 -2.242188 C 20.769531 -2.75 21.585938 -3.234375 22.421875 -3.6875 C 23.269531 -4.195312 23.691406 -4.445312 24.160156 -4.328125 C 24.597656 -4.191406 24.847656 -3.765625 25.304688 -2.929688 L 25.742188 -2.042969 C 26.476562 -0.667969 27.226562 0.738281 28.089844 2.039062 C 29.484375 4.078125 31.527344 4.761719 33.117188 3.726562 C 33.835938 3.296875 34.324219 2.5625 34.484375 1.714844 C 34.667969 0.765625 34.488281 -0.277344 33.90625 -1.253906 C 33.847656 -1.351562 33.789062 -1.449219 33.75 -1.515625 C 32.394531 -3.492188 30.855469 -5.402344 29.378906 -7.21875 L 28.328125 -8.535156 C 27.96875 -8.984375 27.378906 -9.382812 26.898438 -9.671875 C 25.351562 -10.5625 24.179688 -10.527344 23.09375 -9.527344 C 22.851562 -9.339844 22.539062 -9.195312 22.242188 -9.105469 L 22.078125 -9.007812 C 21.066406 -8.628906 20.003906 -8.257812 18.960938 -7.859375 C 16.8125 -7.019531 14.554688 -6.203125 12.378906 -5.257812 C 9.785156 -4.199219 6.835938 -2.839844 4.578125 -0.476562 C 2.808594 1.375 2.296875 3.40625 3.050781 5.5625 C 4.332031 9.265625 6.515625 12.113281 9.539062 14.070312 C 10.203125 14.515625 11.007812 14.828125 11.820312 15.007812 C 13.082031 15.273438 14.082031 14.941406 14.707031 13.992188 C 15.507812 12.8125 15.046875 11.671875 14.535156 10.957031 Z M 14.535156 10.957031 "/></g></g></g><g fill="#462216" fill-opacity="1"><g transform="translate(242.110077, 156.995602)"><g><path d="M 31.265625 23.832031 C 32.640625 23.304688 33.492188 22.132812 33.433594 20.796875 C 33.394531 19.34375 32.40625 18.191406 31.011719 17.875 C 29.894531 17.628906 28.730469 17.546875 27.671875 17.675781 C 24.761719 17.984375 21.824219 18.371094 18.964844 18.75 C 17.796875 18.894531 16.628906 19.042969 15.460938 19.1875 C 15.160156 19.238281 14.855469 19.246094 14.554688 19.292969 L 13.871094 19.363281 L 13.34375 18.449219 L 15.453125 16.230469 C 16.828125 14.742188 18.175781 13.300781 19.5625 11.851562 C 20.355469 11.03125 21.183594 10.207031 21.972656 9.355469 C 23.394531 7.898438 24.847656 6.398438 26.21875 4.875 C 26.847656 4.234375 27.335938 3.429688 27.660156 2.570312 C 27.878906 1.996094 27.96875 1.367188 27.878906 0.804688 C 27.828125 0.46875 27.699219 0.140625 27.53125 -0.175781 C 27.089844 -1.03125 26.265625 -1.628906 25.222656 -1.886719 C 24.589844 -2.015625 24.003906 -2.078125 23.472656 -2.03125 C 17.351562 -1.597656 10.933594 -0.386719 3.28125 1.785156 C 2.730469 1.949219 2.128906 2.277344 1.589844 2.746094 C 0.980469 3.265625 0.707031 3.960938 0.839844 4.554688 C 0.976562 5.1875 1.515625 5.679688 2.289062 5.941406 C 2.890625 6.113281 3.558594 6.199219 4.082031 6.117188 C 7.257812 5.769531 10.460938 5.375 13.554688 5 L 16.042969 4.683594 C 16.308594 4.679688 16.605469 4.59375 16.867188 4.550781 L 18.105469 4.355469 L 17.722656 5.105469 C 17.394531 5.699219 16.996094 6.105469 16.625 6.433594 L 16.429688 6.65625 C 15.765625 7.300781 15.0625 7.949219 14.398438 8.632812 C 12.765625 10.199219 11.066406 11.851562 9.613281 13.582031 C 8.34375 15.050781 6.585938 17.289062 5.667969 19.742188 C 4.777344 22.113281 4.8125 24.03125 5.78125 25.296875 C 6.789062 26.5625 8.714844 27.0625 11.28125 26.769531 C 16.148438 26.191406 21.070312 25.488281 25.851562 24.84375 L 28.929688 24.394531 C 29.761719 24.300781 30.539062 24.101562 31.265625 23.832031 Z M 31.265625 23.832031 "/></g></g></g><g fill="#462216" fill-opacity="1"><g transform="translate(246.561053, 182.309775)"><g><path d="M 21.714844 27.796875 C 21.863281 27.519531 22.011719 27.246094 22.132812 26.925781 C 22.601562 25.710938 22.996094 24.480469 23.316406 23.230469 C 23.96875 20.691406 24.363281 18.089844 24.699219 15.550781 C 24.949219 13.96875 25.171875 12.339844 25.464844 10.730469 C 25.476562 10.691406 25.449219 10.648438 25.46875 10.574219 L 25.457031 10.453125 C 25.414062 8.796875 24.710938 7.714844 23.40625 7.457031 C 22.183594 7.183594 21.121094 7.8125 20.355469 9.261719 C 20.1875 9.609375 20.058594 9.96875 19.917969 10.363281 C 19.589844 11.179688 19.296875 12.007812 19.007812 12.835938 L 18.550781 14.011719 L 17.914062 13.886719 C 17.730469 13.839844 17.582031 13.800781 17.398438 13.753906 C 16.113281 13.425781 14.835938 13.058594 13.558594 12.691406 C 10.414062 11.804688 7.1875 10.9375 3.988281 10.117188 C 2.847656 9.824219 1.542969 9.722656 0.289062 9.871094 C -0.964844 10.019531 -1.882812 10.84375 -2.222656 12.167969 C -2.550781 13.457031 -2.144531 14.617188 -1.042969 15.371094 C -0.21875 15.972656 0.726562 16.414062 1.617188 16.601562 C 4.0625 17.152344 6.519531 17.507812 8.597656 17.808594 C 10.53125 18.066406 12.472656 18.292969 14.488281 18.535156 C 15.40625 18.613281 16.355469 18.738281 17.304688 18.863281 L 17.761719 18.90625 L 16.894531 22.289062 C 16.800781 22.65625 16.707031 23.023438 16.574219 23.382812 C 16.378906 24.152344 16.160156 25 16 25.78125 C 15.738281 27.398438 16.503906 28.851562 17.9375 29.375 C 19.34375 29.851562 20.828125 29.253906 21.714844 27.796875 Z M 21.714844 27.796875 "/></g></g></g><g fill="#462216" fill-opacity="1"><g transform="translate(120.92195, 270.724504)"><g><path d="M 19.433594 -6.632812 C 18.859375 -8.867188 17.359375 -10.742188 15.253906 -11.941406 L 15.058594 -12.035156 L 15.089844 -12.183594 C 14.839844 -12.28125 14.613281 -12.363281 14.359375 -12.460938 C 13.636719 -12.707031 12.894531 -12.960938 12.167969 -13.152344 C 10.796875 -13.484375 10.402344 -13.304688 9.601562 -12.078125 C 8.867188 -10.921875 8.121094 -9.75 7.394531 -8.558594 C 6.300781 -6.863281 5.230469 -5.15625 4.125 -3.441406 C 3.863281 -3.011719 3.398438 -2.621094 2.902344 -2.359375 C 2.316406 -2.042969 1.890625 -1.574219 1.722656 -1.027344 C 1.589844 -0.574219 1.636719 -0.0976562 1.878906 0.332031 C 2.25 1.011719 2.835938 1.621094 3.453125 1.941406 C 6.191406 3.445312 9.230469 4.089844 12.472656 3.796875 C 15.023438 3.582031 17 2.371094 18.363281 0.136719 C 19.628906 -1.929688 20.011719 -4.398438 19.433594 -6.632812 Z M 11.828125 -0.902344 C 10.957031 -0.902344 10.101562 -0.972656 9.171875 -1.0625 C 8.742188 -1.101562 8.292969 -1.148438 7.835938 -1.175781 L 7.4375 -1.222656 L 12.101562 -9.679688 L 12.339844 -9.476562 C 12.511719 -9.34375 12.707031 -9.199219 12.878906 -9.0625 C 13.742188 -8.367188 14.644531 -7.675781 15.179688 -6.617188 C 15.800781 -5.421875 15.742188 -3.996094 15.039062 -2.796875 C 14.324219 -1.628906 13.132812 -0.921875 11.828125 -0.902344 Z M 11.828125 -0.902344 "/></g></g></g><g fill="#462216" fill-opacity="1"><g transform="translate(136.419052, 280.013263)"><g><path d="M 14.8125 0.316406 C 14.25 -0.359375 13.734375 -1.039062 13.1875 -1.761719 C 12.949219 -2.082031 12.691406 -2.410156 12.453125 -2.730469 L 12.191406 -3.0625 L 12.613281 -3.15625 C 12.910156 -3.199219 13.195312 -3.273438 13.46875 -3.320312 C 14.019531 -3.421875 14.550781 -3.527344 15.042969 -3.675781 C 17.15625 -4.3125 18.363281 -5.679688 18.6875 -7.6875 C 19.015625 -9.84375 18.238281 -11.652344 16.441406 -12.871094 C 14.746094 -14.027344 12.941406 -14.605469 11.078125 -14.566406 C 10.925781 -14.574219 10.492188 -14.582031 10.199219 -14.820312 C 9.890625 -15.09375 9.601562 -15.277344 9.355469 -15.371094 C 9.132812 -15.457031 8.902344 -15.464844 8.710938 -15.4375 C 8.308594 -15.382812 7.921875 -15.042969 7.539062 -14.441406 C 4.851562 -10.046875 2.9375 -5.867188 1.722656 -1.707031 C 1.390625 -0.628906 1.734375 0.296875 2.578125 0.640625 C 3.46875 1.003906 4.300781 0.574219 4.839844 -0.453125 C 5.160156 -1.023438 5.441406 -1.636719 5.757812 -2.261719 L 6.382812 -3.511719 L 6.636719 -3.238281 C 6.726562 -3.128906 6.820312 -3.039062 6.894531 -2.960938 C 7.039062 -2.804688 7.171875 -2.675781 7.269531 -2.535156 C 7.664062 -2.078125 8.023438 -1.609375 8.386719 -1.140625 C 9.070312 -0.238281 9.777344 0.671875 10.496094 1.558594 C 11.039062 2.226562 11.605469 2.902344 12.269531 3.382812 C 13.167969 4.058594 14.40625 3.910156 15.113281 3.046875 C 15.9375 2.027344 15.402344 1 14.8125 0.316406 Z M 8.605469 -7.957031 L 8.273438 -8.03125 L 8.414062 -8.339844 C 8.5625 -8.589844 8.671875 -8.882812 8.75 -9.160156 C 9.066406 -9.992188 9.363281 -10.851562 10.523438 -11.132812 C 11.980469 -11.453125 13.355469 -11.089844 14.648438 -10.035156 C 15.0625 -9.699219 15.234375 -9.273438 15.136719 -8.875 C 15.039062 -8.421875 14.648438 -8.058594 14.085938 -7.9375 C 12.351562 -7.492188 10.5625 -7.5 8.605469 -7.957031 Z M 8.605469 -7.957031 "/></g></g></g><g fill="#462216" fill-opacity="1"><g transform="translate(152.9629, 286.159467)"><g><path d="M 18.273438 -13.875 C 18.125 -14.558594 17.667969 -15.003906 16.992188 -15.171875 C 16.242188 -15.351562 15.621094 -15.144531 15.203125 -14.558594 C 14.859375 -14.132812 14.597656 -13.617188 14.421875 -13.039062 C 14.226562 -12.464844 14.070312 -11.859375 13.917969 -11.273438 C 13.75 -10.597656 13.578125 -9.898438 13.335938 -9.207031 L 13.226562 -8.863281 C 12.714844 -7.320312 12.167969 -5.734375 11.441406 -4.230469 C 11.09375 -3.511719 10.582031 -3.089844 9.976562 -2.976562 C 9.320312 -2.847656 8.589844 -3.121094 7.894531 -3.753906 C 6.832031 -4.769531 6.355469 -6.074219 6.480469 -7.632812 C 6.554688 -8.328125 6.609375 -9.050781 6.679688 -9.742188 C 6.773438 -10.824219 6.871094 -11.929688 6.9375 -13.011719 C 7.007812 -13.828125 7.003906 -14.488281 6.9375 -15.082031 C 6.847656 -15.832031 6.378906 -16.351562 5.710938 -16.421875 C 5.039062 -16.488281 4.527344 -16.214844 4.1875 -15.519531 C 4.042969 -15.25 3.925781 -15.003906 3.859375 -14.769531 C 3.5625 -13.628906 3.265625 -12.488281 2.9375 -11.328125 L 2.746094 -10.507812 L 2.816406 -10.496094 L 2.777344 -10.257812 C 2.738281 -10.046875 2.699219 -9.832031 2.664062 -9.621094 C 2.589844 -9.195312 2.511719 -8.746094 2.457031 -8.316406 C 2.042969 -5.246094 2.957031 -2.695312 5.148438 -0.730469 C 6.542969 0.492188 8.242188 1.082031 9.957031 0.894531 C 11.667969 0.707031 13.195312 -0.21875 14.28125 -1.683594 C 14.796875 -2.398438 15.296875 -3.164062 15.582031 -3.941406 C 16.457031 -6.445312 17.335938 -9.089844 18.316406 -12.304688 C 18.429688 -12.675781 18.425781 -13.214844 18.273438 -13.875 Z M 18.273438 -13.875 "/></g></g></g><g fill="#462216" fill-opacity="1"><g transform="translate(171.103078, 289.296184)"><g><path d="M 17.453125 -17.691406 C 17.234375 -18.597656 16.566406 -19.226562 15.722656 -19.296875 C 14.808594 -19.390625 14.007812 -18.859375 13.699219 -18.011719 C 13.453125 -17.332031 13.308594 -16.605469 13.304688 -15.933594 C 13.261719 -14.085938 13.273438 -12.210938 13.277344 -10.386719 C 13.277344 -9.644531 13.273438 -8.898438 13.273438 -8.152344 C 13.277344 -7.960938 13.261719 -7.769531 13.265625 -7.578125 L 13.253906 -7.144531 L 12.640625 -6.886719 L 11.417969 -8.386719 C 10.59375 -9.371094 9.796875 -10.332031 9 -11.316406 C 8.550781 -11.878906 8.101562 -12.464844 7.628906 -13.027344 C 6.828125 -14.035156 6.007812 -15.066406 5.160156 -16.050781 C 4.8125 -16.496094 4.34375 -16.867188 3.832031 -17.140625 C 3.488281 -17.320312 3.101562 -17.429688 2.742188 -17.417969 C 2.527344 -17.410156 2.3125 -17.355469 2.097656 -17.277344 C 1.527344 -17.070312 1.085938 -16.601562 0.839844 -15.96875 C 0.707031 -15.582031 0.625 -15.21875 0.609375 -14.882812 C 0.390625 -11.007812 0.632812 -6.886719 1.382812 -1.914062 C 1.441406 -1.554688 1.597656 -1.152344 1.847656 -0.777344 C 2.125 -0.351562 2.542969 -0.125 2.925781 -0.160156 C 3.332031 -0.195312 3.683594 -0.496094 3.910156 -0.957031 C 4.066406 -1.324219 4.175781 -1.734375 4.164062 -2.070312 C 4.199219 -4.085938 4.210938 -6.128906 4.222656 -8.097656 L 4.222656 -9.683594 C 4.242188 -9.851562 4.210938 -10.042969 4.207031 -10.210938 L 4.183594 -11.003906 L 4.625 -10.703125 C 4.96875 -10.449219 5.191406 -10.167969 5.367188 -9.910156 L 5.492188 -9.769531 C 5.84375 -9.300781 6.195312 -8.804688 6.570312 -8.335938 C 7.417969 -7.1875 8.320312 -5.988281 9.289062 -4.9375 C 10.109375 -4.023438 11.371094 -2.742188 12.835938 -1.96875 C 14.25 -1.21875 15.453125 -1.089844 16.328125 -1.59375 C 17.199219 -2.125 17.667969 -3.292969 17.691406 -4.925781 C 17.71875 -8.023438 17.671875 -11.167969 17.652344 -14.214844 L 17.617188 -16.183594 C 17.625 -16.710938 17.5625 -17.214844 17.453125 -17.691406 Z M 17.453125 -17.691406 "/></g></g></g><g fill="#462216" fill-opacity="1"><g transform="translate(191.631729, 288.392235)"><g><path d="M 13.125 -7.402344 C 11.453125 -8.21875 9.789062 -9.007812 8.09375 -9.820312 C 7.320312 -10.179688 6.542969 -10.539062 5.765625 -10.921875 C 5.652344 -10.96875 5.566406 -11.023438 5.429688 -11.089844 L 4.949219 -11.347656 L 5.507812 -12.121094 C 5.792969 -12.480469 6.035156 -12.808594 6.300781 -13.144531 C 6.722656 -13.664062 7.117188 -14.175781 7.515625 -14.6875 C 8.296875 -15.660156 9.121094 -16.667969 9.886719 -17.710938 C 10.5625 -18.609375 10.507812 -19.679688 9.753906 -20.269531 C 9.023438 -20.859375 8.03125 -20.675781 7.203125 -19.792969 L 7.160156 -19.757812 C 7.125 -19.699219 7.0625 -19.660156 7.027344 -19.601562 L 2.300781 -12.746094 C 2.242188 -12.683594 2.183594 -12.621094 2.105469 -12.527344 L 1.699219 -12.0625 L 1.554688 -12.472656 C 1.453125 -12.695312 1.378906 -12.898438 1.328125 -13.109375 C 1.183594 -13.519531 1.042969 -13.90625 0.910156 -14.265625 L 0.679688 -14.828125 C 0.386719 -15.550781 0.105469 -16.320312 -0.257812 -17.027344 C -0.535156 -17.578125 -1.039062 -17.828125 -1.621094 -17.691406 C -2.210938 -17.578125 -2.554688 -17.152344 -2.613281 -16.445312 C -2.640625 -15.945312 -2.640625 -15.527344 -2.558594 -15.175781 L -2.503906 -14.945312 C -1.699219 -11.3125 -0.890625 -7.558594 -0.00390625 -3.894531 C 0.148438 -3.242188 0.460938 -2.550781 0.949219 -1.828125 C 1.367188 -1.210938 2.167969 -0.953125 2.894531 -1.222656 C 3.640625 -1.496094 4.070312 -2.191406 4.023438 -3.019531 C 4 -3.429688 3.902344 -3.851562 3.808594 -4.25 L 3.773438 -4.390625 C 3.589844 -5.28125 3.378906 -6.171875 3.175781 -7.035156 L 2.902344 -8.203125 L 3.351562 -8.703125 L 3.546875 -8.503906 C 3.585938 -8.4375 3.644531 -8.402344 3.683594 -8.335938 C 3.753906 -8.253906 3.851562 -8.15625 3.9375 -8.101562 C 4.921875 -7.371094 5.90625 -6.640625 6.917969 -5.917969 L 7.84375 -5.222656 C 9.214844 -4.214844 10.484375 -3.648438 11.8125 -3.445312 C 13.121094 -3.234375 14.132812 -3.746094 14.480469 -4.789062 C 14.78125 -5.820312 14.269531 -6.832031 13.125 -7.402344 Z M 13.125 -7.402344 "/></g></g></g></svg>